<svg width="10" height="13" viewBox="0 0 10 13" fill="none" xmlns="http://www.w3.org/2000/svg">
<path d="M5.00001 0.666656C3.39176 0.666656 2.08334 1.97507 2.08334 3.58332V4.74999H1.50001C0.856593 4.74999 0.333344 5.27324 0.333344 5.91666V11.1667C0.333344 11.8101 0.856593 12.3333 1.50001 12.3333H8.50001C9.14343 12.3333 9.66668 11.8101 9.66668 11.1667V5.91666C9.66668 5.27324 9.14343 4.74999 8.50001 4.74999H7.91668V3.58332C7.91668 1.97507 6.60826 0.666656 5.00001 0.666656ZM3.25001 3.58332C3.25001 2.61849 4.03518 1.83332 5.00001 1.83332C5.96484 1.83332 6.75001 2.61849 6.75001 3.58332V4.74999H3.25001V3.58332ZM8.50118 11.1667H5.58334V9.83782C5.93043 9.63541 6.16668 9.26324 6.16668 8.83332C6.16668 8.18991 5.64343 7.66666 5.00001 7.66666C4.35659 7.66666 3.83334 8.18991 3.83334 8.83332C3.83334 9.26266 4.06959 9.63541 4.41668 9.83782V11.1667H1.50001V5.91666H8.50001L8.50118 11.1667Z" fill="#C8D2DC"/>
</svg>
