<svg width="20" height="17" viewBox="0 0 20 17" fill="none" xmlns="http://www.w3.org/2000/svg">
<path d="M3.45425 16.1008C3.45425 16.3203 3.63023 16.5 3.85424 16.5H16.1497C16.3697 16.5 16.5497 16.3203 16.5497 16.1008V14.6398H3.45425V16.1008ZM19.8295 3.30431C19.6815 3.20453 19.4896 3.21245 19.3496 3.32026L14.0618 7.51655L10.35 0.693119C10.2139 0.433595 9.78999 0.437667 9.64999 0.693119L5.93814 7.51655L0.650388 3.32026C0.510391 3.20849 0.3184 3.20453 0.174407 3.30431C0.0264196 3.40415 -0.0335915 3.58782 0.0184295 3.75548L3.30352 13.8413H16.7003L19.9815 3.75548C20.0335 3.58782 19.9736 3.40415 19.8295 3.30431Z" fill="#1D1F21"/>
</svg>
