<svg width="15" height="15" viewBox="0 0 15 15" fill="none" xmlns="http://www.w3.org/2000/svg">
<path d="M14.3779 13.3726L11.75 10.7659C12.7701 9.49402 13.2641 7.87965 13.1304 6.25474C12.9967 4.62982 12.2456 3.11787 11.0314 2.02977C9.81721 0.941673 8.23227 0.360135 6.60248 0.404732C4.97269 0.449328 3.42192 1.11667 2.26905 2.26954C1.11618 3.42241 0.44884 4.97318 0.404243 6.60297C0.359646 8.23276 0.941185 9.8177 2.02928 11.0319C3.11738 12.2461 4.62933 12.9972 6.25425 13.1309C7.87916 13.2645 9.49353 12.7706 10.7654 11.7505L13.3721 14.3571C13.4379 14.4235 13.5163 14.4762 13.6026 14.5122C13.6889 14.5482 13.7815 14.5667 13.875 14.5667C13.9685 14.5667 14.0611 14.5482 14.1474 14.5122C14.2337 14.4762 14.3121 14.4235 14.3779 14.3571C14.5056 14.2251 14.5769 14.0486 14.5769 13.8649C14.5769 13.6812 14.5056 13.5046 14.3779 13.3726ZM6.79166 11.7505C5.81099 11.7505 4.85235 11.4597 4.03696 10.9149C3.22156 10.37 2.58604 9.59564 2.21076 8.68962C1.83547 7.7836 1.73728 6.78665 1.9286 5.82483C2.11992 4.863 2.59215 3.97951 3.28559 3.28608C3.97902 2.59264 4.86251 2.12041 5.82434 1.92909C6.78616 1.73777 7.78312 1.83596 8.68913 2.21125C9.59515 2.58653 10.3695 3.22205 10.9144 4.03745C11.4592 4.85284 11.75 5.81148 11.75 6.79215C11.75 8.10718 11.2276 9.36835 10.2977 10.2982C9.36786 11.2281 8.10669 11.7505 6.79166 11.7505Z" fill="#C8D2DC"/>
</svg>
