<svg width="92" height="92" viewBox="0 0 92 92" fill="none" xmlns="http://www.w3.org/2000/svg">
<path d="M78.5241 78.6082C96.4881 60.8179 96.4881 31.9742 78.5241 14.184C60.5602 -3.60626 31.4349 -3.60626 13.4709 14.184C-4.49301 31.9742 -4.49301 60.8179 13.4709 78.6082C31.4349 96.3984 60.5602 96.3984 78.5241 78.6082Z" fill="#FCE8E3"/>
<path d="M58.2745 40.4464H33.9395V67.6718H58.2745V40.4464Z" fill="#E2988F"/>
<path d="M85.4182 70.1038C72.4307 64.3665 58.2731 62.3344 58.2731 62.3344C51.7794 69.0428 39.6737 69.1326 33.9381 62.3344C33.9381 62.3344 19.7804 64.3665 6.79297 70.1038C14.8689 83.2268 29.4551 92 46.1097 92C62.7643 92 77.3505 83.235 85.4182 70.1038Z" fill="#D85D63"/>
<path d="M45.7625 70.4873C45.6883 70.4873 45.6059 70.4873 45.5317 70.4873C39.244 70.422 33.9452 67.6799 30.9785 62.9546L31.5059 62.6282C34.349 67.1658 39.4665 69.8018 45.54 69.8671C45.6141 69.8671 45.6883 69.8671 45.7625 69.8671C52.0255 69.8671 57.7198 67.1005 60.6618 62.62L61.181 62.9546C58.1236 67.6146 52.2315 70.4873 45.7625 70.4873Z" fill="#B73D49"/>
<path d="M69.121 25.4381C69.121 38.0225 62.1411 54.3692 46.6979 54.0591C30.0845 54.0591 23.772 39.5487 23.772 26.9643C20.863 18.7868 24.3571 9.90757 30.4141 8.27535C34.1966 2.01579 40.7727 0 47.3818 0C60.0974 0 72.6316 9.25468 69.121 25.4381Z" fill="#4C224B"/>
<path d="M69.088 27.1927C67.7942 24.1323 65.1489 25.634 65.1489 25.634C65.701 13.629 59.5205 5.29654 46.1127 5.29654C32.705 5.29654 26.5986 15.2939 27.0765 25.634C27.0765 25.634 24.4313 24.1323 23.1375 27.1927C21.8437 30.2532 24.2088 37.4431 25.6674 39.7282C27.126 42.0133 29.3428 41.0503 29.3428 41.0503C29.3428 41.0503 29.8866 46.306 30.5624 48.0851C31.2381 49.8643 38.8856 58.0662 41.1353 59.3148C44.0855 61.0368 48.4284 61.0368 51.0819 59.3148C53.3317 58.058 60.9791 49.8643 61.6548 48.0851C62.3306 46.306 62.858 40.9524 62.858 40.9524C62.858 40.9524 65.083 42.0133 66.5499 39.7282C68.0167 37.4431 70.3818 30.2613 69.088 27.1927Z" fill="#E2988F"/>
<path d="M46.2192 59.7229C40.7556 59.7229 36.7094 55.9769 34.1465 53.1532L34.608 52.7452C37.0967 55.4791 41.0028 59.1108 46.2192 59.1108C51.1472 59.1108 54.7402 55.8953 57.608 52.7452L58.0695 53.1532C55.111 56.4013 51.3944 59.7229 46.2192 59.7229Z" fill="#C46966"/>
<path d="M29.2783 37.7312L28.6641 37.7994L29.0362 41.0842L29.6504 41.0159L29.2783 37.7312Z" fill="#C46966"/>
<path d="M62.8977 37.7295L62.5605 40.9195L63.1753 40.9832L63.5124 37.7932L62.8977 37.7295Z" fill="#C46966"/>
<path d="M24.8514 34.0889C24.7277 33.64 23.6729 29.6411 25.1315 28.5393C25.6177 28.2292 26.0133 28.2537 26.2688 28.3353C27.0104 28.572 27.3813 29.486 27.4225 29.5921L26.8456 29.8125C26.7632 29.6084 26.4665 29.0453 26.071 28.9229C25.8897 28.8658 25.7002 28.9066 25.4859 29.0453C24.6536 29.6737 25.0162 32.3751 25.4447 33.9338L24.8514 34.0889Z" fill="#C46966"/>
<path d="M67.3661 34.0889L66.7727 33.9257C67.2012 32.3751 67.5638 29.6656 66.715 29.029C66.5172 28.9066 66.3277 28.8658 66.1464 28.923C65.7509 29.0454 65.4542 29.6085 65.3718 29.8125L64.7949 29.5922C64.8361 29.4861 65.207 28.5802 65.9486 28.3354C66.1959 28.2537 66.5997 28.2211 67.0611 28.5231C68.5445 29.633 67.4897 33.6319 67.3661 34.0889Z" fill="#C46966"/>
<path d="M27.0762 25.634C28.2216 21.7167 29.9769 18.3053 32.7293 15.7264C40.4674 24.6546 50.002 30.4735 65.1485 25.634L66.3187 21.8309C66.3187 21.8309 64.4893 13.7678 64.4893 13.474C64.4893 13.1883 58.4982 7.65509 58.4982 7.65509L50.7025 4.48859H42.676L36.2811 6.27587L30.6362 11.0011L27.0762 18.085V25.634Z" fill="#4C224B"/>
</svg>
