<svg width="28" height="34" viewBox="0 0 28 34" fill="none" xmlns="http://www.w3.org/2000/svg">
<path d="M22.3334 12V8.66666C22.3334 4 18.6667 0.333328 14.0001 0.333328C9.33341 0.333328 5.66675 4 5.66675 8.66666V12C2.83341 12 0.666748 14.1667 0.666748 17V28.6667C0.666748 31.5 2.83341 33.6667 5.66675 33.6667H22.3334C25.1667 33.6667 27.3334 31.5 27.3334 28.6667V17C27.3334 14.1667 25.1667 12 22.3334 12ZM9.00008 8.66666C9.00008 5.83333 11.1667 3.66666 14.0001 3.66666C16.8334 3.66666 19.0001 5.83333 19.0001 8.66666V12H9.00008V8.66666ZM15.8334 22.8333L15.6667 23V25.3333C15.6667 26.3333 15.0001 27 14.0001 27C13.0001 27 12.3334 26.3333 12.3334 25.3333V23C11.3334 22 11.1667 20.5 12.1667 19.5C13.1667 18.5 14.6667 18.3333 15.6667 19.3333C16.6667 20.1667 16.8334 21.8333 15.8334 22.8333Z" fill="#C8D2DC"/>
</svg>
