<svg width="14" height="18" viewBox="0 0 14 18" fill="none" xmlns="http://www.w3.org/2000/svg">
<path d="M12.5749 0.666667C12.3539 0.666667 12.1419 0.754465 11.9856 0.910745C11.8293 1.06703 11.7415 1.27899 11.7415 1.5V10.1417C11.7415 10.5837 11.566 11.0076 11.2534 11.3202C10.9408 11.6327 10.5169 11.8083 10.0749 11.8083H3.40821L5.84155 9.375C5.98389 9.21971 6.06215 9.01627 6.06055 8.80561C6.05896 8.59496 5.97765 8.39272 5.83297 8.2396C5.6883 8.08647 5.491 7.99382 5.28077 7.98029C5.07054 7.96676 4.86299 8.03335 4.69988 8.16667L0.841548 12.05C0.765484 12.1308 0.703512 12.2237 0.658214 12.325C0.574866 12.5279 0.574866 12.7554 0.658214 12.9583C0.700352 13.0613 0.762689 13.1548 0.841548 13.2333L4.69988 17.0917C4.8551 17.2456 5.0646 17.3324 5.28321 17.3333C5.39289 17.334 5.50161 17.3129 5.60314 17.2715C5.70467 17.23 5.79701 17.1689 5.87488 17.0917C5.95299 17.0142 6.01498 16.922 6.05729 16.8205C6.0996 16.7189 6.12138 16.61 6.12138 16.5C6.12138 16.39 6.0996 16.2811 6.05729 16.1795C6.01498 16.078 5.95299 15.9858 5.87488 15.9083L3.44155 13.475H10.1082C10.9923 13.475 11.8401 13.1238 12.4652 12.4987C13.0904 11.8736 13.4415 11.0257 13.4415 10.1417V1.5C13.4416 1.3877 13.419 1.27655 13.3751 1.17321C13.3311 1.06987 13.2668 0.976474 13.1858 0.898639C13.1049 0.820805 13.009 0.760135 12.904 0.720272C12.799 0.680409 12.6871 0.662175 12.5749 0.666667Z" fill="#C5FF98"/>
</svg>
