<svg width="18" height="18" viewBox="0 0 18 18" fill="none" xmlns="http://www.w3.org/2000/svg">
<path d="M9 0C4.03716 0 0 4.03716 0 9C0 13.9628 4.03716 18 9 18C13.9628 18 18 13.9628 18 9C18 4.03716 13.9628 0 9 0ZM11.8274 11.7492C11.5556 12.1454 11.1995 12.4427 10.7326 12.6645C10.3883 12.8172 10.0298 12.9109 9.65951 12.9458V14.1555C9.65951 14.3402 9.51018 14.489 9.32599 14.489H8.32777C8.1431 14.489 7.99424 14.3397 7.99424 14.1555V12.8412C7.80628 12.795 7.62115 12.7305 7.43554 12.6457C6.93667 12.4422 6.53436 12.1105 6.25218 11.6644C5.96907 11.2504 5.81691 10.7666 5.79335 10.1951C5.78582 10.0142 5.92384 9.86066 6.10427 9.84842L7.00073 9.78718C7.18116 9.77681 7.33379 9.90447 7.35499 10.0807C7.39079 10.3807 7.47511 10.629 7.59948 10.7986C7.73939 11.0087 7.91887 11.1467 8.19021 11.2579C8.76493 11.5109 9.49605 11.5113 10.002 11.3168C10.2262 11.2207 10.385 11.1104 10.49 10.9748C10.58 10.8457 10.6243 10.71 10.6243 10.548C10.6243 10.3958 10.5852 10.2837 10.4905 10.1622C10.441 10.0962 10.3134 9.97278 9.97749 9.83852C9.81356 9.78435 9.3877 9.66328 8.73949 9.50641C7.98247 9.31751 7.54436 9.1743 7.27255 9.02685C6.86789 8.81298 6.56404 8.54635 6.37325 8.23591C6.17775 7.91981 6.07883 7.55896 6.07883 7.1642C6.07883 6.73457 6.19895 6.3252 6.43544 5.9474C6.6804 5.57901 7.04172 5.28977 7.48547 5.10322C7.63387 5.03585 7.80251 4.97932 7.99471 4.9341V3.82188C7.99471 3.63721 8.14405 3.48835 8.32824 3.48835H9.32646C9.51112 3.48835 9.65998 3.63769 9.65998 3.82188V4.87522C9.96006 4.92515 10.238 5.00099 10.49 5.10134C10.9776 5.32039 11.3314 5.61387 11.5839 6.0044C11.8368 6.37278 11.9796 6.81513 12.0046 7.31118C12.0135 7.49301 11.875 7.64847 11.6932 7.66072L10.7755 7.72243C10.5984 7.73468 10.4462 7.60843 10.4222 7.4346C10.3708 7.0582 10.2451 6.79534 10.0373 6.63188C9.80131 6.43072 9.45883 6.33698 8.98021 6.33698C8.51149 6.33698 8.1351 6.4279 7.91981 6.59372C7.74504 6.72845 7.66307 6.8905 7.66307 7.10343C7.66307 7.26736 7.71442 7.39597 7.8157 7.48642C7.86941 7.52881 8.16242 7.7196 9.10976 7.91887C9.89223 8.10353 10.4674 8.27171 10.7826 8.40738C11.2847 8.6335 11.6437 8.9251 11.8543 9.27558C12.0893 9.62748 12.2076 10.0213 12.2076 10.466C12.2076 10.9286 12.0799 11.3601 11.8274 11.7492Z" fill="#1D1F21"/>
</svg>
