<svg width="21" height="15" viewBox="0 0 21 15" fill="none" xmlns="http://www.w3.org/2000/svg">
<path d="M10.9168 6.39583C10.5002 5.14583 9.25016 4.3125 8.00016 4.3125C6.85433 4.3125 5.81266 4.9375 5.29183 5.875C4.97933 6.39583 5.18766 7.02083 5.7085 7.33333C6.22933 7.64583 6.85433 7.4375 7.16683 6.91667C7.47933 6.39583 8.10433 6.29167 8.62516 6.5C9.146 6.70833 9.25016 7.4375 9.04183 7.95833C8.8335 8.27083 8.521 8.47917 8.10433 8.47917C7.47933 8.47917 7.06266 8.89583 7.06266 9.52083V10.5625C7.06266 11.1875 7.47933 11.6042 8.10433 11.6042C8.72933 11.6042 9.146 11.1875 9.146 10.5625V10.3542C10.6043 9.83333 11.5418 8.0625 10.9168 6.39583ZM7.896 12.75C7.271 12.75 6.85433 13.1667 6.85433 13.7917C6.85433 14.4167 7.271 14.8333 7.896 14.8333C8.521 14.8333 8.93766 14.4167 8.93766 13.7917C8.93766 13.1667 8.521 12.75 7.896 12.75ZM20.396 1.39583C20.0835 1.1875 19.6668 1.1875 19.3543 1.39583L15.7085 3.27083C15.6043 1.60417 14.2502 0.25 12.5835 0.25H3.2085C1.43766 0.25 0.0834961 1.60417 0.0834961 3.375V9.625C0.0834961 11.3958 1.43766 12.75 3.2085 12.75H5.50016C5.60433 12.5417 5.7085 12.3333 5.81266 12.125C5.50016 11.7083 5.29183 11.1875 5.29183 10.5625V9.52083C5.29183 9.3125 5.29183 9.10417 5.396 8.89583C5.18766 8.79167 4.97933 8.79167 4.771 8.6875C3.521 7.95833 3.10433 6.39583 3.8335 5.14583C4.771 3.6875 6.3335 2.75 8.00016 2.75C9.97933 2.75 11.7502 4 12.3752 5.875C12.7918 7.02083 12.6877 8.375 12.1668 9.41667C11.7502 10.25 11.1252 10.875 10.396 11.3958C10.2918 11.7083 10.1877 11.9167 9.97933 12.2292C10.0835 12.3333 10.1877 12.5417 10.2918 12.75H12.5835C14.2502 12.75 15.6043 11.3958 15.7085 9.72917L19.4585 11.6042C19.9793 11.8125 20.6043 11.6042 20.8127 11.1875C20.9168 10.9792 20.9168 10.875 20.9168 10.6667V2.33333C20.9168 2.02083 20.7085 1.60417 20.396 1.39583Z" fill="url(#paint0_linear_55_1747)"/>
<defs>
<linearGradient id="paint0_linear_55_1747" x1="1.46896" y1="6.17448" x2="18.2024" y2="8.17447" gradientUnits="userSpaceOnUse">
<stop stop-color="#68C9FF"/>
<stop offset="0.994746" stop-color="#D1B5FF"/>
</linearGradient>
</defs>
</svg>
