<svg width="12" height="8" viewBox="0 0 12 8" fill="none" xmlns="http://www.w3.org/2000/svg">
<path d="M6.00019 4.70993L2.46019 1.16993C2.27283 0.983683 2.01938 0.879142 1.75519 0.879142C1.49101 0.879142 1.23756 0.983683 1.05019 1.16993C0.956464 1.2629 0.88207 1.3735 0.831301 1.49536C0.780532 1.61722 0.754394 1.74792 0.754394 1.87993C0.754394 2.01195 0.780532 2.14265 0.831301 2.26451C0.88207 2.38637 0.956464 2.49697 1.05019 2.58993L5.29019 6.82993C5.38316 6.92366 5.49376 6.99806 5.61562 7.04883C5.73748 7.09959 5.86818 7.12573 6.00019 7.12573C6.13221 7.12573 6.26291 7.09959 6.38477 7.04883C6.50663 6.99806 6.61723 6.92366 6.71019 6.82993L11.0002 2.58993C11.0929 2.49649 11.1662 2.38568 11.216 2.26384C11.2657 2.142 11.291 2.01154 11.2902 1.87993C11.291 1.74833 11.2657 1.61787 11.216 1.49603C11.1662 1.37419 11.0929 1.26337 11.0002 1.16993C10.8128 0.983683 10.5594 0.879141 10.2952 0.879141C10.031 0.879141 9.77756 0.983683 9.59019 1.16993L6.00019 4.70993Z" fill="url(#paint0_linear_55_3704)"/>
<defs>
<linearGradient id="paint0_linear_55_3704" x1="5.03457" y1="6.71032" x2="5.28638" y2="1.63383" gradientUnits="userSpaceOnUse">
<stop stop-color="#68C9FF"/>
<stop offset="0.994746" stop-color="#D1B5FF"/>
</linearGradient>
</defs>
</svg>
