<svg width="16" height="20" viewBox="0 0 16 20" fill="none" xmlns="http://www.w3.org/2000/svg">
<path d="M8.24 0.399994C2.96 0.399994 0.199997 3.75999 0.199997 7.47999C0.199997 9.27999 1.16 11.08 2.72 12.04C3.2 12.28 3.08 12.04 3.44 10.6C3.44 10.48 3.44 10.36 3.32 10.24C1.16 7.59999 2.96 2.43999 8 2.43999C15.32 2.43999 13.88 12.52 9.32 12.52C8.36 12.64 7.52 11.92 7.52 10.96V10.48C8 9.15999 8.36 7.95999 8.48 6.63999C8.48 4.11999 4.76 4.47999 4.76 7.83999C4.76 8.43999 4.88 9.03999 5.12 9.51999C5.12 9.51999 3.92 14.44 3.68 15.28C3.44 16.72 3.56 18.16 3.8 19.48C3.68 19.6 3.8 19.6 3.8 19.6H3.92C4.76 18.4 5.48 17.2 5.96 15.88C6.08 15.28 6.68 13.12 6.68 13.12C7.28 13.96 8.36 14.44 9.44 14.44C13.16 14.44 15.8 11.2 15.8 7.23999C15.8 3.27999 12.44 0.399994 8.24 0.399994Z" fill="url(#paint0_linear_44_730)"/>
<defs>
<linearGradient id="paint0_linear_44_730" x1="1.23744" y1="8.19999" x2="13.888" y2="9.05994" gradientUnits="userSpaceOnUse">
<stop stop-color="#68C9FF"/>
<stop offset="0.994746" stop-color="#D1B5FF"/>
</linearGradient>
</defs>
</svg>
