<svg width="22" height="18" viewBox="0 0 22 18" fill="none" xmlns="http://www.w3.org/2000/svg">
<path d="M21.5 3L19.25 3.375L20.75 1.5L18.125 2.25C14.75 -1.5 9.5 2.625 11 6C5 6 2 1.5 2 1.5C2 1.5 -0.25 4.875 3.5 7.5L1.25 6.75C1.25 9 2.75 10.5 5.375 11.25H2.75C4.25 14.25 6.875 14.25 6.875 14.25C6.875 14.25 4.625 16.125 0.5 16.125C12.875 22.125 20.375 10.875 19.25 4.875L21.5 3Z" fill="url(#paint0_linear_44_740)"/>
<defs>
<linearGradient id="paint0_linear_44_740" x1="1.89655" y1="7.6984" x2="18.8256" y2="9.44061" gradientUnits="userSpaceOnUse">
<stop stop-color="#68C9FF"/>
<stop offset="0.994746" stop-color="#D1B5FF"/>
</linearGradient>
</defs>
</svg>
